<svg xmlns="http://www.w3.org/2000/svg" xmlns:xlink="http://www.w3.org/1999/xlink" fill="none" version="1.1"
    width="1329" height="358" viewBox="0 0 1329 358">
    <g>
        <path
            d="M179.719,263.328Q165.656,275.422,148.219,281.891Q130.781,288.359,112.078,288.359Q97.7344,288.359,84.4453,284.633Q71.1562,280.906,59.5547,274.086Q47.9531,267.266,38.3906,257.703Q28.8281,248.141,22.0078,236.539Q15.1875,224.938,11.4609,211.648Q7.73438,198.359,7.73438,184.016Q7.73438,169.672,11.4609,156.312Q15.1875,142.953,22.0078,131.352Q28.8281,119.75,38.3906,110.188Q47.9531,100.625,59.5547,93.8047Q71.1562,86.9844,84.4453,83.2578Q97.7344,79.5312,112.078,79.5312Q130.781,79.5312,148.219,85.9297Q165.656,92.3281,179.719,104.562L158.344,139.719Q149.484,130.156,137.391,125.023Q125.297,119.891,112.078,119.891Q98.7188,119.891,87.0469,124.953Q75.375,130.016,66.6562,138.664Q57.9375,147.312,52.875,159.055Q47.8125,170.797,47.8125,184.016Q47.8125,197.234,52.875,208.836Q57.9375,220.438,66.6562,229.156Q75.375,237.875,87.0469,242.938Q98.7188,248,112.078,248Q125.297,248,137.391,242.867Q149.484,237.734,158.344,228.172L179.719,263.328ZM339.328,207.359Q339.328,224.234,333.281,238.789Q327.234,253.344,316.828,263.961Q306.422,274.578,292.43,280.695Q278.438,286.812,262.406,286.812Q246.516,286.812,232.523,280.695Q218.531,274.578,208.055,263.961Q197.578,253.344,191.531,238.789Q185.484,224.234,185.484,207.359Q185.484,190.203,191.531,175.578Q197.578,160.953,208.055,150.336Q218.531,139.719,232.523,133.672Q246.516,127.625,262.406,127.625Q278.438,127.625,292.43,133.32Q306.422,139.016,316.828,149.492Q327.234,159.969,333.281,174.664Q339.328,189.359,339.328,207.359ZM300.656,207.359Q300.656,198.078,297.633,190.555Q294.609,183.031,289.406,177.617Q284.203,172.203,277.242,169.32Q270.281,166.438,262.406,166.438Q254.531,166.438,247.57,169.32Q240.609,172.203,235.477,177.617Q230.344,183.031,227.391,190.555Q224.438,198.078,224.438,207.359Q224.438,216.078,227.391,223.531Q230.344,230.984,235.477,236.469Q240.609,241.953,247.57,245.117Q254.531,248.281,262.406,248.281Q270.281,248.281,277.242,245.328Q284.203,242.375,289.406,237.031Q294.609,231.688,297.633,224.094Q300.656,216.5,300.656,207.359ZM506.109,207.359Q506.109,224.234,500.062,238.789Q494.016,253.344,483.609,263.961Q473.203,274.578,459.211,280.695Q445.219,286.812,429.188,286.812Q413.297,286.812,399.305,280.695Q385.312,274.578,374.836,263.961Q364.359,253.344,358.312,238.789Q352.266,224.234,352.266,207.359Q352.266,190.203,358.312,175.578Q364.359,160.953,374.836,150.336Q385.312,139.719,399.305,133.672Q413.297,127.625,429.188,127.625Q445.219,127.625,459.211,133.32Q473.203,139.016,483.609,149.492Q494.016,159.969,500.062,174.664Q506.109,189.359,506.109,207.359ZM467.438,207.359Q467.438,198.078,464.414,190.555Q461.391,183.031,456.188,177.617Q450.984,172.203,444.023,169.32Q437.062,166.438,429.188,166.438Q421.312,166.438,414.352,169.32Q407.391,172.203,402.258,177.617Q397.125,183.031,394.172,190.555Q391.219,198.078,391.219,207.359Q391.219,216.078,394.172,223.531Q397.125,230.984,402.258,236.469Q407.391,241.953,414.352,245.117Q421.312,248.281,429.188,248.281Q437.062,248.281,444.023,245.328Q450.984,242.375,456.188,237.031Q461.391,231.688,464.414,224.094Q467.438,216.5,467.438,207.359ZM566.016,284L527.344,284L527.344,73.4844L566.016,73.4844L566.016,206.234L623.25,133.672L667.406,133.672L617.484,196.391L667.406,284L623.25,284L592.734,229.297L566.016,264.734L566.016,284ZM833.344,207.359Q833.344,225.078,827.297,239.703Q821.25,254.328,810.844,264.805Q800.438,275.281,786.445,281.047Q772.453,286.812,756.422,286.812Q740.531,286.812,726.539,280.906Q712.547,275,702.07,264.453Q691.594,253.906,685.547,239.352Q679.5,224.797,679.5,207.359L679.5,73.4844L718.031,73.4844L718.031,143.797Q721.125,139.859,725.555,136.766Q729.984,133.672,735.117,131.703Q740.25,129.734,745.734,128.68Q751.219,127.625,756.422,127.625Q772.453,127.625,786.445,133.602Q800.438,139.578,810.844,150.266Q821.25,160.953,827.297,175.508Q833.344,190.062,833.344,207.359ZM794.672,207.359Q794.672,198.641,791.648,191.117Q788.625,183.594,783.422,178.109Q778.219,172.625,771.258,169.531Q764.297,166.438,756.422,166.438Q748.547,166.438,741.586,169.883Q734.625,173.328,729.422,179.023Q724.219,184.719,721.266,192.102Q718.312,199.484,718.312,207.359Q718.312,216.078,721.266,223.531Q724.219,230.984,729.422,236.469Q734.625,241.953,741.586,245.117Q748.547,248.281,756.422,248.281Q764.297,248.281,771.258,245.117Q778.219,241.953,783.422,236.469Q788.625,230.984,791.648,223.531Q794.672,216.078,794.672,207.359ZM1000.12,207.359Q1000.12,224.234,994.078,238.789Q988.031,253.344,977.625,263.961Q967.219,274.578,953.227,280.695Q939.234,286.812,923.203,286.812Q907.312,286.812,893.32,280.695Q879.328,274.578,868.852,263.961Q858.375,253.344,852.328,238.789Q846.281,224.234,846.281,207.359Q846.281,190.203,852.328,175.578Q858.375,160.953,868.852,150.336Q879.328,139.719,893.32,133.672Q907.312,127.625,923.203,127.625Q939.234,127.625,953.227,133.32Q967.219,139.016,977.625,149.492Q988.031,159.969,994.078,174.664Q1000.12,189.359,1000.12,207.359ZM961.453,207.359Q961.453,198.078,958.43,190.555Q955.406,183.031,950.203,177.617Q945,172.203,938.039,169.32Q931.078,166.438,923.203,166.438Q915.328,166.438,908.367,169.32Q901.406,172.203,896.273,177.617Q891.141,183.031,888.188,190.555Q885.234,198.078,885.234,207.359Q885.234,216.078,888.188,223.531Q891.141,230.984,896.273,236.469Q901.406,241.953,908.367,245.117Q915.328,248.281,923.203,248.281Q931.078,248.281,938.039,245.328Q945,242.375,950.203,237.031Q955.406,231.688,958.43,224.094Q961.453,216.5,961.453,207.359ZM1166.91,207.359Q1166.91,224.234,1160.86,238.789Q1154.81,253.344,1144.41,263.961Q1134,274.578,1120.01,280.695Q1106.02,286.812,1089.98,286.812Q1074.09,286.812,1060.1,280.695Q1046.11,274.578,1035.63,263.961Q1025.16,253.344,1019.11,238.789Q1013.06,224.234,1013.06,207.359Q1013.06,190.203,1019.11,175.578Q1025.16,160.953,1035.63,150.336Q1046.11,139.719,1060.1,133.672Q1074.09,127.625,1089.98,127.625Q1106.02,127.625,1120.01,133.32Q1134,139.016,1144.41,149.492Q1154.81,159.969,1160.86,174.664Q1166.91,189.359,1166.91,207.359ZM1128.23,207.359Q1128.23,198.078,1125.21,190.555Q1122.19,183.031,1116.98,177.617Q1111.78,172.203,1104.82,169.32Q1097.86,166.438,1089.98,166.438Q1082.11,166.438,1075.15,169.32Q1068.19,172.203,1063.05,177.617Q1057.92,183.031,1054.97,190.555Q1052.02,198.078,1052.02,207.359Q1052.02,216.078,1054.97,223.531Q1057.92,230.984,1063.05,236.469Q1068.19,241.953,1075.15,245.117Q1082.11,248.281,1089.98,248.281Q1097.86,248.281,1104.82,245.328Q1111.78,242.375,1116.98,237.031Q1122.19,231.688,1125.21,224.094Q1128.23,216.5,1128.23,207.359ZM1226.81,284L1188.14,284L1188.14,73.4844L1226.81,73.4844L1226.81,206.234L1284.05,133.672L1328.2,133.672L1278.28,196.391L1328.2,284L1284.05,284L1253.53,229.297L1226.81,264.734L1226.81,284Z"
            fill="#081040" fill-opacity="1" />
    </g>
</svg>